<?xml version="1.0" encoding="UTF-8" standalone="no"?>
<!-- Created with Inkscape (http://www.inkscape.org/) -->

<svg
   xmlns:dc="http://purl.org/dc/elements/1.1/"
   xmlns:cc="http://creativecommons.org/ns#"
   xmlns:rdf="http://www.w3.org/1999/02/22-rdf-syntax-ns#"
   xmlns:svg="http://www.w3.org/2000/svg"
   xmlns="http://www.w3.org/2000/svg"
   xmlns:sodipodi="http://sodipodi.sourceforge.net/DTD/sodipodi-0.dtd"
   xmlns:inkscape="http://www.inkscape.org/namespaces/inkscape"
   width="512"
   height="512"
   id="svg3313"
   version="1.1"
   inkscape:version="0.47 r22583"
   sodipodi:docname="android-serbian-ime.png">
  <defs
     id="defs3315">
    <inkscape:perspective
       sodipodi:type="inkscape:persp3d"
       inkscape:vp_x="0 : 526.18109 : 1"
       inkscape:vp_y="0 : 1000 : 0"
       inkscape:vp_z="744.09448 : 526.18109 : 1"
       inkscape:persp3d-origin="372.04724 : 350.78739 : 1"
       id="perspective3321" />
    <inkscape:perspective
       id="perspective3295"
       inkscape:persp3d-origin="0.5 : 0.33333333 : 1"
       inkscape:vp_z="1 : 0.5 : 1"
       inkscape:vp_y="0 : 1000 : 0"
       inkscape:vp_x="0 : 0.5 : 1"
       sodipodi:type="inkscape:persp3d" />
  </defs>
  <sodipodi:namedview
     id="base"
     pagecolor="#ffffff"
     bordercolor="#666666"
     borderopacity="1.0"
     inkscape:pageopacity="0.0"
     inkscape:pageshadow="2"
     inkscape:zoom="0.35"
     inkscape:cx="375"
     inkscape:cy="634.28571"
     inkscape:document-units="px"
     inkscape:current-layer="layer1"
     showgrid="false"
     inkscape:window-width="1021"
     inkscape:window-height="774"
     inkscape:window-x="1"
     inkscape:window-y="43"
     inkscape:window-maximized="0" />
  <metadata
     id="metadata3318">
    <rdf:RDF>
      <cc:Work
         rdf:about="">
        <dc:format>image/svg+xml</dc:format>
        <dc:type
           rdf:resource="http://purl.org/dc/dcmitype/StillImage" />
        <dc:title></dc:title>
      </cc:Work>
    </rdf:RDF>
  </metadata>
  <g
     inkscape:label="Laag 1"
     inkscape:groupmode="layer"
     id="layer1"
     transform="translate(0,-540.36218)">
    <g
       id="g3279"
       transform="matrix(2.9626814,0,0,3.4046298,-883.97364,-1173.1582)">
      <g
         style="fill:#97c024;fill-opacity:1"
         id="g3228">
        <path
           style="opacity:0.97777776;fill:#97c024;fill-opacity:1;stroke:none"
           d="m 356.78125,519.875 c -18.53143,0 -33.56249,12.50618 -33.5625,27.94217 0,1.0483 0.0524,2.09294 0.1875,3.1114 l 66.75,0 c 0.13512,-1.01846 0.1875,-2.0631 0.1875,-3.1114 0,-15.43599 -15.03107,-27.94215 -33.5625,-27.94217 z"
           id="path2170" />
        <path
           style="opacity:0.97777776;fill:#97c024;fill-opacity:1;stroke:none"
           d="m 322.96875,553.0625 0,50.25828 c 0,4.09881 4.42778,7.39799 9.92573,7.39797 l 47.3405,0 c 5.49794,0 9.92572,-3.29916 9.92573,-7.39797 l 0,-50.25828 -67.19196,0 z"
           id="rect3158" />
        <rect
           style="opacity:0.97777776;fill:#97c024;fill-opacity:1;stroke:none"
           id="rect3162"
           width="15.357142"
           height="37.857143"
           x="336.76315"
           y="597.04773"
           rx="3.2868018"
           ry="2.2354569" />
        <rect
           ry="2.2354569"
           rx="3.2868018"
           y="597.04773"
           x="361.77332"
           height="37.857143"
           width="15.357142"
           id="rect3164"
           style="opacity:0.97777776;fill:#97c024;fill-opacity:1;stroke:none" />
        <rect
           ry="2.2592807"
           rx="3.2868018"
           y="551.79077"
           x="393.03571"
           height="47.142857"
           width="15.357142"
           id="rect3169"
           style="opacity:0.97777776;fill:#97c024;fill-opacity:1;stroke:none" />
        <rect
           style="opacity:0.97777776;fill:#97c024;fill-opacity:1;stroke:none"
           id="rect3171"
           width="15.357142"
           height="47.142857"
           x="305.03571"
           y="551.79077"
           rx="3.2868018"
           ry="2.2592807" />
        <rect
           style="opacity:0.97777776;fill:#97c024;fill-opacity:1;stroke:none"
           id="rect3191"
           width="14.824304"
           height="2.6225123"
           x="613.59875"
           y="-68.508736"
           rx="0.44696334"
           ry="0.40938789"
           transform="matrix(0.453399,0.8913077,-0.8496599,0.5273311,0,0)" />
        <rect
           transform="matrix(-0.4630445,0.886335,0.8558578,0.5172112,0,0)"
           ry="0.40704253"
           rx="0.43816555"
           y="572.20447"
           x="242.79608"
           height="2.6035209"
           width="14.515503"
           id="rect3193"
           style="opacity:0.97777776;fill:#97c024;fill-opacity:1;stroke:none" />
        <path
           sodipodi:type="arc"
           style="opacity:0.97777776;fill:#97c024;fill-opacity:1;stroke:none"
           id="path3196"
           sodipodi:cx="341.96429"
           sodipodi:cy="536.11218"
           sodipodi:rx="3.0357144"
           sodipodi:ry="3.0357144"
           d="m 345.00001,536.11218 c 0,1.67658 -1.35914,3.03572 -3.03572,3.03572 -1.67657,0 -3.03571,-1.35914 -3.03571,-3.03572 0,-1.67658 1.35914,-3.03571 3.03571,-3.03571 1.67658,0 3.03572,1.35913 3.03572,3.03571 z"
           transform="translate(-0.5714286,-0.7142858)" />
        <path
           transform="translate(30.321428,-0.7142858)"
           d="m 345.00001,536.11218 c 0,1.67658 -1.35914,3.03572 -3.03572,3.03572 -1.67657,0 -3.03571,-1.35914 -3.03571,-3.03572 0,-1.67658 1.35914,-3.03571 3.03571,-3.03571 1.67658,0 3.03572,1.35913 3.03572,3.03571 z"
           sodipodi:ry="3.0357144"
           sodipodi:rx="3.0357144"
           sodipodi:cy="536.11218"
           sodipodi:cx="341.96429"
           id="path3198"
           style="opacity:0.97777776;fill:#97c024;fill-opacity:1;stroke:none"
           sodipodi:type="arc" />
      </g>
      <path
         sodipodi:type="arc"
         style="opacity:0.97777776;fill:#ffffff;fill-opacity:1;stroke:none"
         id="path3224"
         sodipodi:cx="341.96429"
         sodipodi:cy="536.11218"
         sodipodi:rx="3.0357144"
         sodipodi:ry="3.0357144"
         d="m 345.00001,536.11218 c 0,1.67658 -1.35914,3.03572 -3.03572,3.03572 -1.67657,0 -3.03571,-1.35914 -3.03571,-3.03572 0,-1.67658 1.35914,-3.03571 3.03571,-3.03571 1.67658,0 3.03572,1.35913 3.03572,3.03571 z"
         transform="translate(-0.57143,-0.7142858)" />
      <path
         transform="translate(30.32143,-0.7142858)"
         d="m 345.00001,536.11218 c 0,1.67658 -1.35914,3.03572 -3.03572,3.03572 -1.67657,0 -3.03571,-1.35914 -3.03571,-3.03572 0,-1.67658 1.35914,-3.03571 3.03571,-3.03571 1.67658,0 3.03572,1.35913 3.03572,3.03571 z"
         sodipodi:ry="3.0357144"
         sodipodi:rx="3.0357144"
         sodipodi:cy="536.11218"
         sodipodi:cx="341.96429"
         id="path3226"
         style="opacity:0.97777776;fill:#ffffff;fill-opacity:1;stroke:none"
         sodipodi:type="arc" />
    </g>
    <text
       xml:space="preserve"
       style="font-size:407.17871094px;font-style:normal;font-variant:normal;font-weight:normal;font-stretch:normal;text-align:start;line-height:100%;writing-mode:lr-tb;text-anchor:start;fill:#000000;fill-opacity:1;stroke:none;font-family:Sans;-inkscape-font-specification:Sans"
       x="134.9501"
       y="1187.0582"
       id="text3358"
       sodipodi:linespacing="100%"
       transform="scale(1.1530379,0.86727419)"><tspan
         sodipodi:role="line"
         id="tspan3360"
         x="134.9501"
         y="1187.0582">Ћ</tspan></text>
  </g>
</svg>
